<svg width="102" height="102" viewBox="0 0 102 102" fill="none" xmlns="http://www.w3.org/2000/svg">
<path d="M51 1.96156C41.2917 1.96156 31.8015 4.84091 23.7298 10.2354C15.6582 15.6298 9.36782 23.297 5.65441 32.2671C1.94099 41.2372 0.971379 51.1071 2.86823 60.6283C4.76509 70.1495 9.44318 78.8942 16.3107 85.7563C23.1783 92.6183 31.9268 97.2894 41.4495 99.1787C50.9722 101.068 60.8413 100.09 69.8084 96.3698C78.7755 92.6493 86.4377 86.3527 91.8257 78.2768C97.2137 70.2008 100.085 60.7083 100.078 51C100.057 37.9938 94.8783 25.5268 85.6779 16.3337C76.4774 7.14055 64.0062 1.97193 51 1.96156V1.96156ZM51 102C40.9132 102 31.0528 99.0089 22.6659 93.405C14.279 87.801 7.74223 79.8359 3.88217 70.5169C0.0220975 61.1978 -0.987872 50.9434 0.979973 41.0504C2.94782 31.1574 7.8051 22.0701 14.9376 14.9376C22.0701 7.8051 31.1574 2.94782 41.0504 0.979973C50.9434 -0.987872 61.1978 0.0220975 70.5169 3.88217C79.8359 7.74223 87.801 14.279 93.405 22.6659C99.0089 31.0528 102 40.9132 102 51C102 64.5261 96.6268 77.4981 87.0625 87.0625C77.4981 96.6268 64.5261 102 51 102" fill="white"/>
<path d="M50.9999 73.1097C41.0606 73.0713 31.3081 70.8836 27.6468 67.2404C18.5505 58.1888 40.6621 23.5105 51.0113 23.4601C61.3378 23.5105 83.4493 58.1888 74.3529 67.2404C70.6917 70.8836 60.9389 73.0713 50.9999 73.1097Z" fill="white"/>
</svg>
