<svg width="27" height="27" viewBox="0 0 27 27" fill="none" xmlns="http://www.w3.org/2000/svg">
<rect width="27" height="27" rx="8" fill="url(#paint0_linear_1_1227)"/>
<path d="M20.8352 11.34C20.5077 10.9208 20.1305 10.543 19.7119 10.215L16.168 7.12127C15.2245 6.2944 14.7527 5.88377 14.2248 5.72627C13.7588 5.59126 13.2642 5.59126 12.7982 5.72627C12.2703 5.88377 11.7985 6.28877 10.855 7.12127L7.3223 10.215C6.90368 10.543 6.52649 10.9208 6.19903 11.34C6.00179 11.6271 5.85724 11.9471 5.77219 12.285C5.66065 12.8155 5.61537 13.3578 5.6374 13.8994V16.4419C5.6374 17.775 5.6374 18.4388 5.89013 18.9506C6.11512 19.3951 6.47226 19.7587 6.91231 19.9913C7.41216 20.25 8.06927 20.25 9.37788 20.25H17.6227C18.9313 20.25 19.5884 20.25 20.0882 19.9913C20.5283 19.7587 20.8854 19.3951 21.1104 18.9506C21.3631 18.4388 21.3631 17.775 21.3631 16.4419V13.8994C21.3962 13.3592 21.3623 12.8169 21.262 12.285C21.177 11.9471 21.0324 11.6271 20.8352 11.34Z" fill="url(#paint1_linear_1_1227)"/>
<path d="M6.16521 11.3401C5.96796 11.6272 5.82342 11.9472 5.73837 12.2851C5.63812 12.8169 5.60416 13.3592 5.63727 13.8994V16.4419C5.63727 17.7751 5.63727 18.4388 5.89001 18.9507C6.11499 19.3952 6.47214 19.7588 6.91218 19.9913C7.41203 20.2501 8.06915 20.2501 9.37775 20.2501H17.6225C18.9311 20.2501 19.5882 20.2501 20.0881 19.9913C20.5163 19.766 20.8652 19.4146 21.0878 18.9844C20.2616 15.9055 18.2553 13.2776 15.5052 11.6719C13.1113 10.2453 10.3112 9.65753 7.54683 10.0013L7.29971 10.2151C6.87715 10.5423 6.49615 10.9201 6.16521 11.3401Z" fill="url(#paint2_linear_1_1227)"/>
<path d="M11.8657 15.1369C10.8624 14.7504 9.78885 14.5806 8.71544 14.6388C7.64203 14.6969 6.59302 14.9817 5.63721 15.4744V16.4419C5.63721 17.775 5.63721 18.4388 5.88994 18.9507C6.11492 19.3951 6.47207 19.7587 6.91211 19.9913C7.41197 20.25 8.06908 20.25 9.37768 20.25H16.4262C16.156 19.1607 15.639 18.1483 14.9154 17.2913C14.0941 16.3297 13.0457 15.5891 11.8657 15.1369Z" fill="url(#paint3_linear_1_1227)"/>
<defs>
<linearGradient id="paint0_linear_1_1227" x1="-1.43481e-07" y1="27" x2="27" y2="-3.36213e-06" gradientUnits="userSpaceOnUse">
<stop offset="0.159916" stop-color="#C926FF"/>
<stop offset="0.849577" stop-color="#4A26FF"/>
</linearGradient>
<linearGradient id="paint1_linear_1_1227" x1="8.89487" y1="10.6256" x2="17.5295" y2="19.4323" gradientUnits="userSpaceOnUse">
<stop stop-color="white"/>
<stop offset="0.5" stop-color="#FFBEF1"/>
<stop offset="1" stop-color="#E374FF"/>
</linearGradient>
<linearGradient id="paint2_linear_1_1227" x1="8.98461" y1="13.3257" x2="17.9736" y2="22.4862" gradientUnits="userSpaceOnUse">
<stop stop-color="white"/>
<stop offset="0.51" stop-color="#FFCBF7"/>
<stop offset="1" stop-color="#EE86FF"/>
</linearGradient>
<linearGradient id="paint3_linear_1_1227" x1="10.5683" y1="17.4375" x2="18.3582" y2="17.4375" gradientUnits="userSpaceOnUse">
<stop stop-color="white"/>
<stop offset="1" stop-color="#FFD1F8"/>
</linearGradient>
</defs>
</svg>
