<svg width="92" height="56" viewBox="0 0 92 56" fill="none" xmlns="http://www.w3.org/2000/svg">
<g clip-path="url(#clip0_1_1299)">
<rect x="12" width="81" height="44" fill="white"/>
<path d="M30.5879 8.15775H33.1586V22H30.5879V8.15775ZM23.4295 22H20.8588V8.15775H23.4295V22ZM30.7857 16.0676H23.212V13.8726H30.7857V16.0676ZM43.3539 22.1977C42.2729 22.1977 41.2775 22.0198 40.3679 21.6638C39.4583 21.3079 38.6673 20.8135 37.9949 20.1807C37.3226 19.5348 36.8019 18.7833 36.4327 17.9264C36.0636 17.0563 35.8791 16.1072 35.8791 15.0789C35.8791 14.0506 36.0636 13.108 36.4327 12.2511C36.8019 11.381 37.3226 10.6296 37.9949 9.99679C38.6673 9.35082 39.4583 8.84986 40.3679 8.49392C41.2775 8.13797 42.2663 7.96 43.3341 7.96C44.4151 7.96 45.4038 8.13797 46.3003 8.49392C47.2099 8.84986 48.0009 9.35082 48.6732 9.99679C49.3456 10.6296 49.8663 11.381 50.2354 12.2511C50.6046 13.108 50.7891 14.0506 50.7891 15.0789C50.7891 16.1072 50.6046 17.0563 50.2354 17.9264C49.8663 18.7965 49.3456 19.5479 48.6732 20.1807C48.0009 20.8135 47.2099 21.3079 46.3003 21.6638C45.4038 22.0198 44.4217 22.1977 43.3539 22.1977ZM43.3341 19.9434C44.0328 19.9434 44.6788 19.8248 45.272 19.5875C45.8652 19.3502 46.3794 19.014 46.8144 18.579C47.2495 18.1308 47.5856 17.6166 47.8229 17.0366C48.0734 16.4433 48.1987 15.7908 48.1987 15.0789C48.1987 14.367 48.0734 13.721 47.8229 13.141C47.5856 12.5477 47.2495 12.0336 46.8144 11.5985C46.3794 11.1503 45.8652 10.8075 45.272 10.5703C44.6788 10.333 44.0328 10.2143 43.3341 10.2143C42.6354 10.2143 41.9894 10.333 41.3962 10.5703C40.8161 10.8075 40.302 11.1503 39.8538 11.5985C39.4187 12.0336 39.076 12.5477 38.8255 13.141C38.5882 13.721 38.4695 14.367 38.4695 15.0789C38.4695 15.7776 38.5882 16.4235 38.8255 17.0168C39.076 17.61 39.4187 18.1308 39.8538 18.579C40.2888 19.014 40.8029 19.3502 41.3962 19.5875C41.9894 19.8248 42.6354 19.9434 43.3341 19.9434ZM53.514 22V8.15775H55.6299L61.681 18.2626H60.5736L66.5257 8.15775H68.6416L68.6614 22H66.2291L66.2093 11.9743H66.7235L61.6612 20.418H60.5142L55.3728 11.9743H55.9661V22H53.514ZM74.7733 13.9122H81.6549V16.0281H74.7733V13.9122ZM74.9711 19.8446H82.782V22H72.4004V8.15775H82.5052V10.3132H74.9711V19.8446Z" fill="#1B1B1B"/>
<path d="M21.5538 36.3098V28.2418H22.3266V36.3098H21.5538ZM21.9402 26.2788C21.765 26.2788 21.6156 26.217 21.492 26.0934C21.3683 25.9697 21.3065 25.8255 21.3065 25.6606C21.3065 25.4854 21.3683 25.336 21.492 25.2124C21.6156 25.0887 21.765 25.0269 21.9402 25.0269C22.1257 25.0269 22.2751 25.0887 22.3884 25.2124C22.5121 25.3257 22.5739 25.47 22.5739 25.6451C22.5739 25.8203 22.5121 25.9697 22.3884 26.0934C22.2751 26.217 22.1257 26.2788 21.9402 26.2788ZM29.5251 28.1799C30.1846 28.1799 30.7565 28.3087 31.2408 28.5663C31.7354 28.8136 32.1166 29.1949 32.3845 29.7101C32.6627 30.215 32.8018 30.8435 32.8018 31.5957V36.3098H32.029V31.6575C32.029 30.7508 31.7972 30.0604 31.3335 29.5864C30.8801 29.1124 30.2413 28.8755 29.4169 28.8755C28.7884 28.8755 28.2423 29.0043 27.7786 29.2619C27.3149 29.5195 26.9594 29.8801 26.7121 30.3438C26.4751 30.8075 26.3567 31.3639 26.3567 32.013V36.3098H25.5839V28.2418H26.3257V30.4829L26.2175 30.2356C26.4648 29.5967 26.8719 29.097 27.4386 28.7364C28.0053 28.3654 28.7008 28.1799 29.5251 28.1799ZM38.3328 36.3716C37.6218 36.3716 37.0757 36.1759 36.6945 35.7843C36.3235 35.3928 36.138 34.8569 36.138 34.1769V26.4798H36.9108V34.0996C36.9108 34.6148 37.0396 35.0115 37.2972 35.2897C37.5548 35.5679 37.9258 35.707 38.4101 35.707C38.915 35.707 39.3323 35.5576 39.662 35.2588L39.9866 35.7998C39.7805 35.9955 39.5281 36.1398 39.2292 36.2325C38.9407 36.3253 38.6419 36.3716 38.3328 36.3716ZM34.6543 28.9064V28.2418H39.4765V28.9064H34.6543ZM45.1316 36.3716C44.3176 36.3716 43.5963 36.1965 42.9678 35.8461C42.3496 35.4958 41.8601 35.0115 41.4995 34.3933C41.1491 33.775 40.974 33.0692 40.974 32.2758C40.974 31.4721 41.1388 30.7662 41.4686 30.1583C41.8086 29.5401 42.2723 29.0558 42.8596 28.7054C43.4469 28.3551 44.1064 28.1799 44.838 28.1799C45.5696 28.1799 46.2239 28.35 46.8009 28.69C47.3882 29.03 47.8468 29.5092 48.1765 30.1274C48.5165 30.7353 48.6865 31.4412 48.6865 32.2449C48.6865 32.2758 48.6814 32.3119 48.6711 32.3531C48.6711 32.384 48.6711 32.42 48.6711 32.4613H41.5458V31.8585H48.2538L47.9446 32.1521C47.9549 31.5236 47.821 30.962 47.5428 30.4674C47.2749 29.9625 46.9091 29.571 46.4454 29.2928C45.9817 29.0043 45.4459 28.86 44.838 28.86C44.2403 28.86 43.7045 29.0043 43.2305 29.2928C42.7669 29.571 42.4011 29.9625 42.1332 30.4674C41.8653 30.962 41.7313 31.5287 41.7313 32.1676V32.3067C41.7313 32.9662 41.8756 33.5535 42.1641 34.0687C42.4629 34.5736 42.8699 34.9703 43.3851 35.2588C43.9003 35.537 44.4876 35.6761 45.1471 35.6761C45.6623 35.6761 46.1414 35.5834 46.5845 35.3979C47.0379 35.2124 47.4191 34.9291 47.7283 34.5478L48.1765 35.0579C47.8261 35.4906 47.3831 35.8204 46.8473 36.0471C46.3218 36.2634 45.7499 36.3716 45.1316 36.3716ZM51.0773 36.3098V24.8414H51.8501V36.3098H51.0773ZM55.1073 36.3098V24.8414H55.8801V36.3098H55.1073ZM62.414 36.3716C61.6 36.3716 60.8787 36.1965 60.2502 35.8461C59.6319 35.4958 59.1425 35.0115 58.7819 34.3933C58.4315 33.775 58.2564 33.0692 58.2564 32.2758C58.2564 31.4721 58.4212 30.7662 58.751 30.1583C59.091 29.5401 59.5547 29.0558 60.142 28.7054C60.7293 28.3551 61.3888 28.1799 62.1204 28.1799C62.852 28.1799 63.5063 28.35 64.0833 28.69C64.6706 29.03 65.1291 29.5092 65.4589 30.1274C65.7989 30.7353 65.9689 31.4412 65.9689 32.2449C65.9689 32.2758 65.9638 32.3119 65.9535 32.3531C65.9535 32.384 65.9535 32.42 65.9535 32.4613H58.8282V31.8585H65.5362L65.227 32.1521C65.2373 31.5236 65.1034 30.962 64.8252 30.4674C64.5573 29.9625 64.1915 29.571 63.7278 29.2928C63.2641 29.0043 62.7283 28.86 62.1204 28.86C61.5227 28.86 60.9869 29.0043 60.5129 29.2928C60.0493 29.571 59.6835 29.9625 59.4156 30.4674C59.1477 30.962 59.0137 31.5287 59.0137 32.1676V32.3067C59.0137 32.9662 59.158 33.5535 59.4465 34.0687C59.7453 34.5736 60.1523 34.9703 60.6675 35.2588C61.1827 35.537 61.77 35.6761 62.4295 35.6761C62.9447 35.6761 63.4238 35.5834 63.8669 35.3979C64.3203 35.2124 64.7015 34.9291 65.0107 34.5478L65.4589 35.0579C65.1085 35.4906 64.6655 35.8204 64.1297 36.0471C63.6042 36.2634 63.0323 36.3716 62.414 36.3716ZM71.5591 36.3716C70.776 36.3716 70.0753 36.1965 69.457 35.8461C68.8491 35.4958 68.3648 35.0115 68.0042 34.3933C67.6538 33.775 67.4787 33.0692 67.4787 32.2758C67.4787 31.4721 67.6538 30.7611 68.0042 30.1429C68.3648 29.5246 68.8491 29.0455 69.457 28.7054C70.0753 28.3551 70.776 28.1799 71.5591 28.1799C72.2082 28.1799 72.7955 28.3036 73.3211 28.5509C73.8569 28.7982 74.2896 29.1691 74.6194 29.6637L74.0475 30.081C73.759 29.6689 73.3983 29.3649 72.9656 29.1691C72.5328 28.9733 72.064 28.8755 71.5591 28.8755C70.9305 28.8755 70.3638 29.0197 69.8589 29.3082C69.3643 29.5864 68.9728 29.9831 68.6842 30.4983C68.406 31.0032 68.2669 31.5957 68.2669 32.2758C68.2669 32.9559 68.406 33.5535 68.6842 34.0687C68.9728 34.5736 69.3643 34.9703 69.8589 35.2588C70.3638 35.537 70.9305 35.6761 71.5591 35.6761C72.064 35.6761 72.5328 35.5782 72.9656 35.3825C73.3983 35.1867 73.759 34.8827 74.0475 34.4705L74.6194 34.8879C74.2896 35.3825 73.8569 35.7534 73.3211 36.0007C72.7955 36.248 72.2082 36.3716 71.5591 36.3716ZM79.3728 36.3716C78.6618 36.3716 78.1157 36.1759 77.7345 35.7843C77.3635 35.3928 77.1781 34.8569 77.1781 34.1769V26.4798H77.9509V34.0996C77.9509 34.6148 78.0797 35.0115 78.3373 35.2897C78.5949 35.5679 78.9658 35.707 79.4501 35.707C79.955 35.707 80.3723 35.5576 80.702 35.2588L81.0266 35.7998C80.8205 35.9955 80.5681 36.1398 80.2693 36.2325C79.9808 36.3253 79.6819 36.3716 79.3728 36.3716ZM75.6943 28.9064V28.2418H80.5166V28.9064H75.6943Z" fill="#1B1B1B"/>
</g>
<path d="M32 1H72C82.4934 1 91 9.50659 91 20V24C91 34.4934 82.4934 43 72 43H13V20C13 9.50659 21.5066 1 32 1Z" stroke="black" stroke-width="2"/>
<circle cx="6" cy="50" r="5" fill="white" stroke="black" stroke-width="2"/>
<defs>
<clipPath id="clip0_1_1299">
<path d="M12 20C12 8.9543 20.9543 0 32 0H72C83.0457 0 92 8.95431 92 20V24C92 35.0457 83.0457 44 72 44H12V20Z" fill="white"/>
</clipPath>
</defs>
</svg>
