<svg width="42" height="42" viewBox="0 0 42 42" fill="none" xmlns="http://www.w3.org/2000/svg">
<rect width="42" height="42" rx="12" fill="url(#paint0_linear_1_1277)"/>
<path d="M32.4102 17.6399C31.9008 16.9877 31.314 16.4 30.6629 15.8899L25.1501 11.0774C23.6824 9.79114 22.9485 9.15239 22.1273 8.90739C21.4024 8.69737 20.633 8.69737 19.9082 8.90739C19.087 9.15239 18.3531 9.78239 16.8854 11.0774L11.3901 15.8899C10.7389 16.4 10.1522 16.9877 9.6428 17.6399C9.33597 18.0865 9.11112 18.5842 8.97882 19.1099C8.80531 19.935 8.73488 20.7786 8.76914 21.6211V25.5761C8.76914 27.6499 8.76914 28.6824 9.16229 29.4786C9.51226 30.17 10.0678 30.7356 10.7523 31.0974C11.5299 31.4999 12.5521 31.4999 14.5877 31.4999H27.4129C29.4485 31.4999 30.4707 31.4999 31.2482 31.0974C31.9327 30.7356 32.4883 30.17 32.8382 29.4786C33.2314 28.6824 33.2314 27.6499 33.2314 25.5761V21.6211C33.2829 20.7808 33.2301 19.9372 33.0741 19.1099C32.9418 18.5842 32.717 18.0865 32.4102 17.6399Z" fill="url(#paint1_linear_1_1277)"/>
<path d="M9.59023 17.64C9.2834 18.0866 9.05856 18.5844 8.92626 19.11C8.77031 19.9374 8.71749 20.7809 8.769 21.6213V25.5763C8.769 27.65 8.769 28.6825 9.16214 29.4788C9.51211 30.1701 10.0677 30.7357 10.7522 31.0975C11.5297 31.5 12.5519 31.5 14.5875 31.5H27.4127C29.4483 31.5 30.4705 31.5 31.2481 31.0975C31.9142 30.747 32.457 30.2004 32.8032 29.5313C31.5179 24.7418 28.3971 20.6539 24.1191 18.1563C20.3952 15.9371 16.0396 15.0227 11.7394 15.5575L11.355 15.89C10.6977 16.3991 10.105 16.9868 9.59023 17.64Z" fill="url(#paint2_linear_1_1277)"/>
<path d="M18.4575 23.5459C16.8968 22.9447 15.2268 22.6806 13.5571 22.7711C11.8873 22.8616 10.2555 23.3045 8.76869 24.0709V25.5759C8.76869 27.6497 8.76869 28.6822 9.16184 29.4784C9.51181 30.1698 10.0674 30.7354 10.7519 31.0972C11.5294 31.4997 12.5516 31.4997 14.5872 31.4997H25.5515C25.1312 29.8052 24.3271 28.2304 23.2014 26.8972C21.9238 25.4014 20.2931 24.2494 18.4575 23.5459Z" fill="url(#paint3_linear_1_1277)"/>
<defs>
<linearGradient id="paint0_linear_1_1277" x1="-2.23192e-07" y1="42" x2="42" y2="-5.22998e-06" gradientUnits="userSpaceOnUse">
<stop offset="0.159916" stop-color="#C926FF"/>
<stop offset="0.849577" stop-color="#4A26FF"/>
</linearGradient>
<linearGradient id="paint1_linear_1_1277" x1="13.8363" y1="16.5286" x2="27.268" y2="30.2279" gradientUnits="userSpaceOnUse">
<stop stop-color="white"/>
<stop offset="0.5" stop-color="#FFBEF1"/>
<stop offset="1" stop-color="#E374FF"/>
</linearGradient>
<linearGradient id="paint2_linear_1_1277" x1="13.976" y1="20.7288" x2="27.9589" y2="34.9784" gradientUnits="userSpaceOnUse">
<stop stop-color="white"/>
<stop offset="0.51" stop-color="#FFCBF7"/>
<stop offset="1" stop-color="#EE86FF"/>
</linearGradient>
<linearGradient id="paint3_linear_1_1277" x1="16.4394" y1="27.1247" x2="28.5569" y2="27.1247" gradientUnits="userSpaceOnUse">
<stop stop-color="white"/>
<stop offset="1" stop-color="#FFD1F8"/>
</linearGradient>
</defs>
</svg>
