<svg width="42" height="42" viewBox="0 0 42 42" fill="none" xmlns="http://www.w3.org/2000/svg">
<circle cx="21" cy="21" r="12.6" fill="white"/>
<path d="M21 42C9.40202 42 0 32.598 0 21C0 9.40202 9.40202 0 21 0C32.598 0 42 9.40202 42 21C42 32.598 32.598 42 21 42ZM11.384 27.7777C12.8916 29.2778 16.9074 30.1787 21 30.1944C25.0925 30.1787 29.1084 29.2778 30.616 27.7777C34.3615 24.0506 25.2568 9.77126 21.0047 9.7505C16.7432 9.77126 7.63848 24.0506 11.384 27.7777Z" fill="url(#paint0_linear_1_1282)"/>
<defs>
<linearGradient id="paint0_linear_1_1282" x1="0" y1="42" x2="42" y2="0" gradientUnits="userSpaceOnUse">
<stop stop-color="#C926FF"/>
<stop offset="1" stop-color="#4A26FF"/>
</linearGradient>
</defs>
</svg>
